# xmcd
#
# Track frame offsets:
#	150
#	18265
#	36831
#	51584
#	69469
#	84791
#	102385
#	117788
#	133761
#	152503
#	172072
#	183697
#	195836
#	213051
#	225807
#	241468
#	253200
#	270481
#	289298
#	300255
#	315960
#	331157
#
# Disc length: 4674 seconds
#
# Revision: 1
# Processed by: cddbd v1.5.2PL0 Copyright (c) Steve Scherf et al.
# Submitted via: audiograbber 1.83.01
#
DISCID=22124016
DTITLE=Various Artist - CDX -  Volume 417 - March 2007
DYEAR=2007
DGENRE=Country
TTITLE0=Little Big Town - A Little More You
TTITLE1=Miranda Lambert - Famous In A Small Town
TTITLE2=Amy Dalley - Good Kind Of Crazy
TTITLE3=Kellie Pickler - I Wonder
TTITLE4=Lee Brice - She Ain't Right
TTITLE5=Rodney Carrington - Show Them To Me
TTITLE6=Taylor Swift - Teardrops On My Guitar
TTITLE7=Rodney Atkins - These Are My People
TTITLE8=George Straight - Wrapped
TTITLE9=Kristina Cornell - Little Red Balloon
TTITLE10=Bobby Pinson - Past Coming Back
TTITLE11=Mark Chesnutt - That Good That Bad
TTITLE12=Kate Russell - Better Days
TTITLE13=Stephen Cochran - Friday Night Fireside
TTITLE14=Jason Meadows - 100% Cowboy
TTITLE15=Darren Kozelsky - Cool Grass
TTITLE16=Trent Bougeois - Duct Tape Bible
TTITLE17=Delana Stevens - Good Enough For Me
TTITLE18=Jeff Griffith - If It Ain't One Thing It's Another
TTITLE19=Sable - Raised On The Radid
TTITLE20=The Doo-Wah Riders - Smothered, Covered And Scattered
TTITLE21=Mikel Knight - Texas Bad Boy
EXTD=
EXTT0=
EXTT1=
EXTT2=
EXTT3=
EXTT4=
EXTT5=
EXTT6=
EXTT7=
EXTT8=
EXTT9=
EXTT10=
EXTT11=
EXTT12=
EXTT13=
EXTT14=
EXTT15=
EXTT16=
EXTT17=
EXTT18=
EXTT19=
EXTT20=
EXTT21=
PLAYORDER=
